M48
;Layer_Color=9474304
;FILE_FORMAT=4:4
METRIC,LZ
;TYPE=PLATED
T01F00S00C1.0000
T02F00S00C1.1000
T03F00S00C1.3500
T04F00S00C1.4000
%
T01
X0164587Y0073152
Y0076581
X0155707
Y0073152
X0155067Y006128
Y005874
Y00562
X014478Y0056835
X013728
X0137788Y0096459
X0145288
X0155707Y0083439
Y008001
X0164587
Y0083439
T02
X0138041Y0071096
Y0074596
Y0078096
X0150241Y0077696
Y0074996
Y0072296
Y0069596
Y0080396
Y0083096
X0138041Y0081596
T03
X0153289Y0091887
Y0094422
Y0096957
T04
X0161925Y0059582
Y0064582
X0131572Y0074147
Y0079147
X0161036Y0088538
Y0093538
M30
