G04*
G04 #@! TF.GenerationSoftware,Altium Limited,Altium Designer,24.5.2 (23)*
G04*
G04 Layer_Color=16711935*
%FSLAX44Y44*%
%MOMM*%
G71*
G04*
G04 #@! TF.SameCoordinates,E433FD67-1584-4B15-B20B-D7A4E77B4FCA*
G04*
G04*
G04 #@! TF.FilePolarity,Positive*
G04*
G01*
G75*
%ADD10C,0.2000*%
%ADD13C,0.1500*%
%ADD14C,0.1270*%
%ADD35C,0.1000*%
D10*
X1611360Y966380D02*
G03*
X1611360Y966380I-1000J0D01*
G01*
X1521410Y683460D02*
G03*
X1521410Y683460I-5000J0D01*
G01*
X1316720Y710470D02*
G03*
X1316720Y710470I-1000J0D01*
G01*
X1620250Y564820D02*
G03*
X1620250Y564820I-1000J0D01*
G01*
X1627470Y820390D02*
Y848390D01*
X1575470D02*
X1627470D01*
X1575470Y820390D02*
Y848390D01*
Y820390D02*
X1627470D01*
X1526410Y670960D02*
Y855960D01*
X1356410D02*
X1526410D01*
X1356410Y670960D02*
Y855960D01*
Y670960D02*
X1526410D01*
X1514790Y890870D02*
Y997570D01*
Y890870D02*
X1561790D01*
Y997570D01*
X1514790D02*
X1561790D01*
X1575470Y786100D02*
Y814100D01*
Y786100D02*
X1627470D01*
Y814100D01*
X1575470D02*
X1627470D01*
Y751810D02*
Y779810D01*
X1575470D02*
X1627470D01*
X1575470Y751810D02*
Y779810D01*
Y751810D02*
X1627470D01*
X1575470Y717520D02*
Y745520D01*
Y717520D02*
X1627470D01*
Y745520D01*
X1575470D02*
X1627470D01*
D13*
X1507880Y964590D02*
G03*
X1507880Y964590I-92500J0D01*
G01*
X1502800Y568350D02*
G03*
X1502800Y568350I-92500J0D01*
G01*
D14*
X1650360Y860380D02*
Y960380D01*
X1575360Y860380D02*
X1650360D01*
X1575360D02*
Y960380D01*
X1650360D01*
X1275720Y716470D02*
Y816470D01*
X1350720D01*
Y716470D02*
Y816470D01*
X1275720Y716470D02*
X1350720D01*
X1579250Y570820D02*
Y670820D01*
X1654250D01*
Y570820D02*
Y670820D01*
X1579250Y570820D02*
X1654250D01*
D35*
X1522170Y533900D02*
Y640900D01*
X1569170Y533900D02*
Y640900D01*
X1522170Y533900D02*
X1569170D01*
X1522170Y640900D02*
X1569170D01*
X1535170Y533900D02*
Y640900D01*
M02*
