G04*
G04 #@! TF.GenerationSoftware,Altium Limited,Altium Designer,24.5.2 (23)*
G04*
G04 Layer_Color=16711935*
%FSLAX44Y44*%
%MOMM*%
G71*
G04*
G04 #@! TF.SameCoordinates,E433FD67-1584-4B15-B20B-D7A4E77B4FCA*
G04*
G04*
G04 #@! TF.FilePolarity,Positive*
G04*
G01*
G75*
%ADD10C,0.2000*%
G36*
X1601470Y827992D02*
X1599011D01*
X1598844Y828001D01*
X1598659Y828011D01*
X1598474Y828029D01*
X1598290Y828057D01*
X1598132Y828085D01*
X1598123D01*
X1598105Y828094D01*
X1598077D01*
X1598040Y828112D01*
X1597938Y828140D01*
X1597809Y828186D01*
X1597661Y828251D01*
X1597504Y828334D01*
X1597346Y828427D01*
X1597199Y828547D01*
X1597189Y828556D01*
X1597180Y828565D01*
X1597152Y828593D01*
X1597115Y828621D01*
X1597023Y828713D01*
X1596912Y828843D01*
X1596792Y829000D01*
X1596662Y829185D01*
X1596542Y829398D01*
X1596440Y829638D01*
Y829647D01*
X1596431Y829666D01*
X1596413Y829703D01*
X1596404Y829758D01*
X1596376Y829823D01*
X1596357Y829897D01*
X1596339Y829980D01*
X1596311Y830082D01*
X1596283Y830183D01*
X1596265Y830303D01*
X1596219Y830562D01*
X1596191Y830849D01*
X1596182Y831163D01*
Y831173D01*
Y831191D01*
Y831237D01*
Y831284D01*
X1596191Y831348D01*
Y831422D01*
X1596200Y831598D01*
X1596228Y831801D01*
X1596256Y832014D01*
X1596302Y832236D01*
X1596357Y832458D01*
Y832467D01*
X1596366Y832486D01*
X1596376Y832513D01*
X1596385Y832550D01*
X1596422Y832652D01*
X1596478Y832781D01*
X1596533Y832929D01*
X1596607Y833077D01*
X1596699Y833234D01*
X1596792Y833382D01*
X1596801Y833401D01*
X1596838Y833447D01*
X1596893Y833512D01*
X1596967Y833595D01*
X1597051Y833687D01*
X1597152Y833780D01*
X1597254Y833882D01*
X1597374Y833965D01*
X1597393Y833974D01*
X1597430Y834002D01*
X1597495Y834039D01*
X1597587Y834085D01*
X1597698Y834140D01*
X1597827Y834187D01*
X1597975Y834242D01*
X1598142Y834288D01*
X1598160D01*
X1598188Y834298D01*
X1598216Y834307D01*
X1598308Y834316D01*
X1598438Y834335D01*
X1598585Y834353D01*
X1598761Y834372D01*
X1598955Y834381D01*
X1599168Y834390D01*
X1601470D01*
Y827992D01*
D02*
G37*
G36*
X1593168Y829388D02*
X1593177Y829398D01*
X1593223Y829434D01*
X1593279Y829490D01*
X1593371Y829555D01*
X1593473Y829638D01*
X1593602Y829730D01*
X1593750Y829832D01*
X1593916Y829934D01*
X1593926D01*
X1593935Y829943D01*
X1593990Y829980D01*
X1594083Y830026D01*
X1594194Y830082D01*
X1594323Y830146D01*
X1594462Y830211D01*
X1594601Y830276D01*
X1594739Y830331D01*
Y829573D01*
X1594730D01*
X1594711Y829555D01*
X1594675Y829545D01*
X1594628Y829518D01*
X1594573Y829490D01*
X1594508Y829453D01*
X1594351Y829361D01*
X1594166Y829259D01*
X1593981Y829129D01*
X1593787Y828981D01*
X1593593Y828824D01*
X1593584Y828815D01*
X1593574Y828806D01*
X1593547Y828778D01*
X1593510Y828750D01*
X1593426Y828658D01*
X1593315Y828547D01*
X1593204Y828417D01*
X1593084Y828270D01*
X1592983Y828122D01*
X1592890Y827964D01*
X1592382D01*
Y834390D01*
X1593168D01*
Y829388D01*
D02*
G37*
G36*
X1543320Y945148D02*
Y945139D01*
Y945102D01*
Y945056D01*
Y944991D01*
X1543310Y944908D01*
Y944815D01*
X1543301Y944704D01*
X1543292Y944594D01*
X1543264Y944344D01*
X1543227Y944085D01*
X1543172Y943835D01*
X1543135Y943715D01*
X1543098Y943604D01*
Y943595D01*
X1543089Y943576D01*
X1543070Y943549D01*
X1543051Y943512D01*
X1542996Y943410D01*
X1542913Y943281D01*
X1542802Y943133D01*
X1542672Y942985D01*
X1542506Y942828D01*
X1542303Y942689D01*
X1542293D01*
X1542275Y942670D01*
X1542247Y942661D01*
X1542201Y942633D01*
X1542145Y942606D01*
X1542071Y942578D01*
X1541998Y942550D01*
X1541905Y942513D01*
X1541803Y942476D01*
X1541692Y942449D01*
X1541572Y942421D01*
X1541434Y942393D01*
X1541295Y942374D01*
X1541147Y942356D01*
X1540814Y942337D01*
X1540731D01*
X1540666Y942347D01*
X1540592D01*
X1540500Y942356D01*
X1540398Y942365D01*
X1540296Y942374D01*
X1540065Y942411D01*
X1539816Y942467D01*
X1539575Y942541D01*
X1539344Y942643D01*
X1539335D01*
X1539316Y942661D01*
X1539288Y942680D01*
X1539252Y942698D01*
X1539150Y942772D01*
X1539030Y942874D01*
X1538891Y943003D01*
X1538761Y943151D01*
X1538632Y943336D01*
X1538530Y943540D01*
Y943549D01*
X1538521Y943567D01*
X1538512Y943604D01*
X1538493Y943650D01*
X1538475Y943706D01*
X1538456Y943780D01*
X1538429Y943863D01*
X1538410Y943965D01*
X1538392Y944076D01*
X1538364Y944196D01*
X1538345Y944325D01*
X1538327Y944464D01*
X1538309Y944621D01*
X1538299Y944788D01*
X1538290Y944963D01*
Y945148D01*
Y948846D01*
X1539141D01*
Y945148D01*
Y945139D01*
Y945111D01*
Y945065D01*
Y945010D01*
X1539150Y944945D01*
Y944862D01*
X1539159Y944686D01*
X1539178Y944482D01*
X1539205Y944279D01*
X1539242Y944085D01*
X1539261Y944002D01*
X1539288Y943919D01*
X1539298Y943900D01*
X1539316Y943854D01*
X1539362Y943789D01*
X1539418Y943697D01*
X1539483Y943604D01*
X1539575Y943503D01*
X1539686Y943401D01*
X1539816Y943318D01*
X1539834Y943308D01*
X1539880Y943281D01*
X1539963Y943253D01*
X1540074Y943216D01*
X1540204Y943170D01*
X1540370Y943142D01*
X1540546Y943114D01*
X1540740Y943105D01*
X1540833D01*
X1540888Y943114D01*
X1540971D01*
X1541054Y943123D01*
X1541258Y943160D01*
X1541480Y943207D01*
X1541692Y943281D01*
X1541896Y943382D01*
X1541988Y943447D01*
X1542071Y943521D01*
X1542081Y943530D01*
X1542090Y943540D01*
X1542108Y943567D01*
X1542136Y943604D01*
X1542164Y943660D01*
X1542201Y943715D01*
X1542238Y943798D01*
X1542275Y943882D01*
X1542312Y943983D01*
X1542340Y944103D01*
X1542377Y944242D01*
X1542404Y944390D01*
X1542432Y944557D01*
X1542451Y944732D01*
X1542469Y944936D01*
Y945148D01*
Y948846D01*
X1543320D01*
Y945148D01*
D02*
G37*
G36*
X1547369Y942449D02*
X1546583D01*
Y947450D01*
X1546574Y947441D01*
X1546528Y947404D01*
X1546472Y947349D01*
X1546380Y947284D01*
X1546278Y947201D01*
X1546149Y947108D01*
X1546001Y947007D01*
X1545834Y946905D01*
X1545825D01*
X1545816Y946896D01*
X1545760Y946859D01*
X1545668Y946812D01*
X1545557Y946757D01*
X1545428Y946692D01*
X1545289Y946628D01*
X1545150Y946563D01*
X1545011Y946507D01*
Y947265D01*
X1545021D01*
X1545039Y947284D01*
X1545076Y947293D01*
X1545123Y947321D01*
X1545178Y947349D01*
X1545243Y947386D01*
X1545400Y947478D01*
X1545585Y947580D01*
X1545770Y947709D01*
X1545964Y947857D01*
X1546158Y948014D01*
X1546167Y948024D01*
X1546176Y948033D01*
X1546204Y948061D01*
X1546241Y948088D01*
X1546324Y948181D01*
X1546435Y948292D01*
X1546546Y948421D01*
X1546667Y948569D01*
X1546768Y948717D01*
X1546861Y948874D01*
X1547369D01*
Y942449D01*
D02*
G37*
G36*
X1418551Y971200D02*
X1418634Y971191D01*
X1418736Y971182D01*
X1418838Y971173D01*
X1418958Y971145D01*
X1419208Y971089D01*
X1419485Y971006D01*
X1419624Y970951D01*
X1419753Y970886D01*
X1419883Y970803D01*
X1420012Y970720D01*
X1420021Y970711D01*
X1420040Y970701D01*
X1420077Y970674D01*
X1420123Y970627D01*
X1420169Y970581D01*
X1420234Y970516D01*
X1420298Y970442D01*
X1420372Y970368D01*
X1420446Y970276D01*
X1420520Y970165D01*
X1420604Y970054D01*
X1420678Y969934D01*
X1420742Y969795D01*
X1420816Y969657D01*
X1420872Y969509D01*
X1420927Y969342D01*
X1420095Y969148D01*
Y969157D01*
X1420086Y969176D01*
X1420067Y969213D01*
X1420049Y969259D01*
X1420030Y969314D01*
X1420003Y969388D01*
X1419929Y969536D01*
X1419836Y969703D01*
X1419725Y969869D01*
X1419587Y970026D01*
X1419439Y970165D01*
X1419420Y970183D01*
X1419365Y970220D01*
X1419272Y970267D01*
X1419152Y970331D01*
X1418995Y970387D01*
X1418819Y970442D01*
X1418607Y970479D01*
X1418375Y970489D01*
X1418302D01*
X1418255Y970479D01*
X1418190D01*
X1418117Y970470D01*
X1417941Y970442D01*
X1417747Y970405D01*
X1417543Y970341D01*
X1417331Y970248D01*
X1417137Y970128D01*
X1417127D01*
X1417118Y970109D01*
X1417053Y970063D01*
X1416970Y969989D01*
X1416868Y969878D01*
X1416748Y969740D01*
X1416637Y969583D01*
X1416536Y969388D01*
X1416443Y969176D01*
Y969166D01*
X1416434Y969148D01*
X1416425Y969120D01*
X1416415Y969074D01*
X1416397Y969018D01*
X1416378Y968954D01*
X1416351Y968797D01*
X1416314Y968612D01*
X1416277Y968408D01*
X1416258Y968186D01*
X1416249Y967946D01*
Y967937D01*
Y967909D01*
Y967863D01*
Y967807D01*
X1416258Y967743D01*
Y967659D01*
X1416267Y967567D01*
X1416277Y967465D01*
X1416304Y967243D01*
X1416351Y967003D01*
X1416406Y966763D01*
X1416480Y966522D01*
Y966513D01*
X1416489Y966495D01*
X1416508Y966467D01*
X1416526Y966421D01*
X1416582Y966310D01*
X1416665Y966180D01*
X1416767Y966032D01*
X1416896Y965875D01*
X1417044Y965736D01*
X1417220Y965607D01*
X1417229D01*
X1417247Y965598D01*
X1417275Y965579D01*
X1417312Y965561D01*
X1417358Y965542D01*
X1417414Y965514D01*
X1417543Y965459D01*
X1417710Y965404D01*
X1417895Y965357D01*
X1418098Y965320D01*
X1418311Y965311D01*
X1418375D01*
X1418431Y965320D01*
X1418496D01*
X1418560Y965330D01*
X1418727Y965367D01*
X1418921Y965413D01*
X1419115Y965487D01*
X1419319Y965588D01*
X1419420Y965644D01*
X1419513Y965718D01*
X1419522Y965727D01*
X1419531Y965736D01*
X1419559Y965764D01*
X1419596Y965792D01*
X1419633Y965838D01*
X1419679Y965893D01*
X1419734Y965949D01*
X1419781Y966023D01*
X1419836Y966106D01*
X1419901Y966199D01*
X1419956Y966291D01*
X1420012Y966402D01*
X1420058Y966522D01*
X1420104Y966652D01*
X1420151Y966790D01*
X1420188Y966938D01*
X1421038Y966726D01*
Y966716D01*
X1421029Y966679D01*
X1421010Y966624D01*
X1420983Y966550D01*
X1420955Y966467D01*
X1420918Y966365D01*
X1420872Y966254D01*
X1420816Y966134D01*
X1420687Y965875D01*
X1420520Y965616D01*
X1420419Y965487D01*
X1420317Y965357D01*
X1420206Y965246D01*
X1420077Y965135D01*
X1420067Y965126D01*
X1420049Y965108D01*
X1420003Y965089D01*
X1419956Y965052D01*
X1419883Y965006D01*
X1419809Y964960D01*
X1419707Y964913D01*
X1419605Y964867D01*
X1419485Y964812D01*
X1419355Y964765D01*
X1419217Y964719D01*
X1419069Y964673D01*
X1418912Y964636D01*
X1418745Y964618D01*
X1418570Y964599D01*
X1418385Y964590D01*
X1418283D01*
X1418209Y964599D01*
X1418126D01*
X1418024Y964608D01*
X1417913Y964627D01*
X1417784Y964645D01*
X1417516Y964692D01*
X1417238Y964765D01*
X1416961Y964867D01*
X1416831Y964932D01*
X1416702Y965006D01*
X1416693Y965015D01*
X1416674Y965024D01*
X1416637Y965052D01*
X1416600Y965089D01*
X1416545Y965126D01*
X1416480Y965182D01*
X1416406Y965246D01*
X1416332Y965320D01*
X1416258Y965404D01*
X1416175Y965487D01*
X1416009Y965699D01*
X1415851Y965949D01*
X1415713Y966226D01*
Y966236D01*
X1415694Y966263D01*
X1415685Y966310D01*
X1415657Y966365D01*
X1415639Y966439D01*
X1415611Y966531D01*
X1415574Y966633D01*
X1415546Y966744D01*
X1415519Y966864D01*
X1415482Y967003D01*
X1415435Y967290D01*
X1415398Y967613D01*
X1415380Y967946D01*
Y967955D01*
Y967992D01*
Y968048D01*
X1415389Y968112D01*
Y968205D01*
X1415398Y968297D01*
X1415408Y968418D01*
X1415426Y968538D01*
X1415472Y968806D01*
X1415537Y969102D01*
X1415629Y969398D01*
X1415759Y969684D01*
X1415768Y969693D01*
X1415777Y969721D01*
X1415796Y969758D01*
X1415833Y969804D01*
X1415870Y969869D01*
X1415916Y969943D01*
X1416036Y970109D01*
X1416194Y970294D01*
X1416378Y970479D01*
X1416591Y970664D01*
X1416841Y970821D01*
X1416850Y970831D01*
X1416878Y970840D01*
X1416915Y970858D01*
X1416961Y970886D01*
X1417035Y970914D01*
X1417109Y970942D01*
X1417201Y970979D01*
X1417303Y971016D01*
X1417414Y971052D01*
X1417534Y971089D01*
X1417793Y971145D01*
X1418089Y971191D01*
X1418394Y971210D01*
X1418486D01*
X1418551Y971200D01*
D02*
G37*
G36*
X1424718Y964701D02*
X1423932D01*
Y969703D01*
X1423923Y969693D01*
X1423877Y969657D01*
X1423821Y969601D01*
X1423729Y969536D01*
X1423627Y969453D01*
X1423497Y969361D01*
X1423350Y969259D01*
X1423183Y969157D01*
X1423174D01*
X1423165Y969148D01*
X1423109Y969111D01*
X1423017Y969065D01*
X1422906Y969009D01*
X1422776Y968944D01*
X1422638Y968880D01*
X1422499Y968815D01*
X1422360Y968760D01*
Y969518D01*
X1422370D01*
X1422388Y969536D01*
X1422425Y969546D01*
X1422471Y969573D01*
X1422527Y969601D01*
X1422591Y969638D01*
X1422749Y969730D01*
X1422934Y969832D01*
X1423118Y969962D01*
X1423313Y970109D01*
X1423507Y970267D01*
X1423516Y970276D01*
X1423525Y970285D01*
X1423553Y970313D01*
X1423590Y970341D01*
X1423673Y970433D01*
X1423784Y970544D01*
X1423895Y970674D01*
X1424015Y970821D01*
X1424117Y970969D01*
X1424209Y971126D01*
X1424718D01*
Y964701D01*
D02*
G37*
G36*
X1609874Y806516D02*
X1609948Y806507D01*
X1610040Y806498D01*
X1610142Y806479D01*
X1610244Y806461D01*
X1610484Y806396D01*
X1610725Y806304D01*
X1610845Y806248D01*
X1610965Y806183D01*
X1611076Y806100D01*
X1611178Y806008D01*
X1611187Y805999D01*
X1611205Y805989D01*
X1611224Y805952D01*
X1611261Y805915D01*
X1611307Y805869D01*
X1611353Y805804D01*
X1611400Y805740D01*
X1611455Y805657D01*
X1611548Y805481D01*
X1611640Y805259D01*
X1611677Y805148D01*
X1611696Y805018D01*
X1611714Y804889D01*
X1611723Y804750D01*
Y804732D01*
Y804686D01*
X1611714Y804612D01*
X1611705Y804510D01*
X1611686Y804399D01*
X1611649Y804270D01*
X1611612Y804131D01*
X1611557Y803992D01*
X1611548Y803974D01*
X1611529Y803928D01*
X1611492Y803854D01*
X1611437Y803752D01*
X1611363Y803641D01*
X1611270Y803502D01*
X1611159Y803364D01*
X1611030Y803206D01*
X1611011Y803188D01*
X1610965Y803132D01*
X1610919Y803086D01*
X1610873Y803040D01*
X1610817Y802984D01*
X1610743Y802911D01*
X1610669Y802837D01*
X1610577Y802753D01*
X1610484Y802661D01*
X1610373Y802559D01*
X1610253Y802458D01*
X1610124Y802337D01*
X1609976Y802217D01*
X1609828Y802088D01*
X1609819Y802078D01*
X1609800Y802060D01*
X1609763Y802032D01*
X1609717Y801995D01*
X1609662Y801940D01*
X1609597Y801884D01*
X1609449Y801764D01*
X1609292Y801625D01*
X1609144Y801487D01*
X1609014Y801367D01*
X1608959Y801320D01*
X1608913Y801274D01*
X1608903Y801265D01*
X1608876Y801237D01*
X1608839Y801200D01*
X1608792Y801145D01*
X1608746Y801080D01*
X1608691Y801015D01*
X1608580Y800858D01*
X1611732D01*
Y800100D01*
X1607489D01*
Y800109D01*
Y800146D01*
Y800202D01*
X1607498Y800275D01*
X1607507Y800359D01*
X1607526Y800451D01*
X1607544Y800544D01*
X1607581Y800645D01*
Y800655D01*
X1607590Y800664D01*
X1607609Y800719D01*
X1607646Y800803D01*
X1607701Y800913D01*
X1607775Y801043D01*
X1607868Y801191D01*
X1607970Y801339D01*
X1608099Y801496D01*
Y801505D01*
X1608118Y801514D01*
X1608164Y801570D01*
X1608247Y801653D01*
X1608367Y801773D01*
X1608506Y801912D01*
X1608681Y802078D01*
X1608894Y802263D01*
X1609125Y802458D01*
X1609135Y802467D01*
X1609171Y802495D01*
X1609227Y802541D01*
X1609292Y802596D01*
X1609375Y802670D01*
X1609477Y802753D01*
X1609578Y802846D01*
X1609698Y802947D01*
X1609930Y803169D01*
X1610161Y803391D01*
X1610272Y803502D01*
X1610373Y803613D01*
X1610466Y803715D01*
X1610540Y803817D01*
Y803826D01*
X1610558Y803835D01*
X1610577Y803863D01*
X1610595Y803900D01*
X1610660Y804001D01*
X1610734Y804122D01*
X1610799Y804270D01*
X1610863Y804427D01*
X1610900Y804603D01*
X1610919Y804769D01*
Y804778D01*
Y804787D01*
X1610910Y804843D01*
X1610900Y804935D01*
X1610873Y805037D01*
X1610836Y805166D01*
X1610771Y805296D01*
X1610688Y805425D01*
X1610577Y805555D01*
X1610558Y805573D01*
X1610512Y805610D01*
X1610447Y805657D01*
X1610346Y805721D01*
X1610216Y805777D01*
X1610068Y805832D01*
X1609893Y805869D01*
X1609698Y805878D01*
X1609643D01*
X1609606Y805869D01*
X1609495Y805860D01*
X1609366Y805832D01*
X1609227Y805795D01*
X1609070Y805730D01*
X1608922Y805647D01*
X1608783Y805536D01*
X1608765Y805518D01*
X1608728Y805472D01*
X1608672Y805398D01*
X1608617Y805287D01*
X1608552Y805157D01*
X1608497Y804991D01*
X1608459Y804806D01*
X1608441Y804593D01*
X1607637Y804676D01*
Y804686D01*
X1607646Y804713D01*
Y804760D01*
X1607655Y804824D01*
X1607674Y804898D01*
X1607692Y804982D01*
X1607720Y805083D01*
X1607748Y805185D01*
X1607822Y805407D01*
X1607932Y805629D01*
X1607997Y805740D01*
X1608080Y805851D01*
X1608164Y805952D01*
X1608256Y806045D01*
X1608265Y806054D01*
X1608284Y806063D01*
X1608312Y806091D01*
X1608358Y806119D01*
X1608413Y806156D01*
X1608478Y806193D01*
X1608552Y806239D01*
X1608645Y806285D01*
X1608746Y806331D01*
X1608857Y806378D01*
X1608977Y806415D01*
X1609107Y806452D01*
X1609245Y806479D01*
X1609393Y806507D01*
X1609550Y806516D01*
X1609717Y806526D01*
X1609809D01*
X1609874Y806516D01*
D02*
G37*
G36*
X1604096Y806489D02*
X1604281Y806479D01*
X1604465Y806461D01*
X1604650Y806433D01*
X1604807Y806405D01*
X1604817D01*
X1604835Y806396D01*
X1604863D01*
X1604900Y806378D01*
X1605002Y806350D01*
X1605131Y806304D01*
X1605279Y806239D01*
X1605436Y806156D01*
X1605593Y806063D01*
X1605741Y805943D01*
X1605751Y805934D01*
X1605760Y805925D01*
X1605788Y805897D01*
X1605825Y805869D01*
X1605917Y805777D01*
X1606028Y805647D01*
X1606148Y805490D01*
X1606278Y805305D01*
X1606398Y805092D01*
X1606499Y804852D01*
Y804843D01*
X1606509Y804824D01*
X1606527Y804787D01*
X1606537Y804732D01*
X1606564Y804667D01*
X1606583Y804593D01*
X1606601Y804510D01*
X1606629Y804408D01*
X1606657Y804307D01*
X1606675Y804186D01*
X1606721Y803928D01*
X1606749Y803641D01*
X1606758Y803327D01*
Y803317D01*
Y803299D01*
Y803253D01*
Y803206D01*
X1606749Y803142D01*
Y803068D01*
X1606740Y802892D01*
X1606712Y802689D01*
X1606684Y802476D01*
X1606638Y802254D01*
X1606583Y802032D01*
Y802023D01*
X1606573Y802004D01*
X1606564Y801977D01*
X1606555Y801940D01*
X1606518Y801838D01*
X1606463Y801709D01*
X1606407Y801561D01*
X1606333Y801413D01*
X1606241Y801256D01*
X1606148Y801108D01*
X1606139Y801089D01*
X1606102Y801043D01*
X1606046Y800978D01*
X1605972Y800895D01*
X1605889Y800803D01*
X1605788Y800710D01*
X1605686Y800608D01*
X1605566Y800525D01*
X1605547Y800516D01*
X1605510Y800488D01*
X1605446Y800451D01*
X1605353Y800405D01*
X1605242Y800350D01*
X1605113Y800303D01*
X1604965Y800248D01*
X1604798Y800202D01*
X1604780D01*
X1604752Y800192D01*
X1604724Y800183D01*
X1604632Y800174D01*
X1604502Y800155D01*
X1604355Y800137D01*
X1604179Y800118D01*
X1603985Y800109D01*
X1603772Y800100D01*
X1601470D01*
Y806498D01*
X1603929D01*
X1604096Y806489D01*
D02*
G37*
G36*
X1593445Y765801D02*
X1593519Y765792D01*
X1593602Y765782D01*
X1593694Y765764D01*
X1593796Y765745D01*
X1594018Y765690D01*
X1594249Y765597D01*
X1594370Y765542D01*
X1594480Y765477D01*
X1594591Y765394D01*
X1594702Y765311D01*
X1594711Y765302D01*
X1594730Y765283D01*
X1594758Y765255D01*
X1594785Y765218D01*
X1594832Y765172D01*
X1594878Y765107D01*
X1594933Y765043D01*
X1594989Y764959D01*
X1595044Y764867D01*
X1595100Y764775D01*
X1595202Y764553D01*
X1595285Y764294D01*
X1595312Y764155D01*
X1595331Y764007D01*
X1594545Y763905D01*
Y763915D01*
X1594536Y763933D01*
X1594527Y763970D01*
X1594517Y764016D01*
X1594508Y764072D01*
X1594490Y764137D01*
X1594443Y764275D01*
X1594379Y764442D01*
X1594296Y764599D01*
X1594203Y764747D01*
X1594092Y764876D01*
X1594074Y764885D01*
X1594037Y764922D01*
X1593963Y764969D01*
X1593870Y765015D01*
X1593759Y765070D01*
X1593621Y765117D01*
X1593463Y765154D01*
X1593297Y765163D01*
X1593241D01*
X1593204Y765154D01*
X1593103Y765144D01*
X1592973Y765117D01*
X1592825Y765070D01*
X1592668Y765006D01*
X1592511Y764913D01*
X1592363Y764784D01*
X1592345Y764765D01*
X1592298Y764710D01*
X1592243Y764627D01*
X1592169Y764516D01*
X1592095Y764377D01*
X1592040Y764220D01*
X1591993Y764035D01*
X1591975Y763831D01*
Y763822D01*
Y763804D01*
Y763776D01*
X1591984Y763739D01*
X1591993Y763637D01*
X1592021Y763517D01*
X1592058Y763369D01*
X1592123Y763221D01*
X1592215Y763073D01*
X1592335Y762935D01*
X1592354Y762916D01*
X1592400Y762879D01*
X1592474Y762824D01*
X1592576Y762759D01*
X1592705Y762694D01*
X1592862Y762639D01*
X1593038Y762602D01*
X1593232Y762583D01*
X1593315D01*
X1593380Y762593D01*
X1593463Y762602D01*
X1593556Y762620D01*
X1593667Y762639D01*
X1593787Y762667D01*
X1593694Y761973D01*
X1593648D01*
X1593611Y761982D01*
X1593491D01*
X1593389Y761964D01*
X1593269Y761945D01*
X1593130Y761918D01*
X1592973Y761871D01*
X1592825Y761807D01*
X1592668Y761723D01*
X1592659D01*
X1592650Y761714D01*
X1592603Y761677D01*
X1592539Y761613D01*
X1592465Y761529D01*
X1592391Y761409D01*
X1592326Y761271D01*
X1592280Y761113D01*
X1592262Y761021D01*
Y760919D01*
Y760910D01*
Y760901D01*
Y760845D01*
X1592280Y760771D01*
X1592298Y760669D01*
X1592335Y760559D01*
X1592382Y760438D01*
X1592456Y760318D01*
X1592557Y760207D01*
X1592567Y760198D01*
X1592613Y760161D01*
X1592677Y760115D01*
X1592761Y760059D01*
X1592872Y760013D01*
X1593001Y759967D01*
X1593149Y759930D01*
X1593315Y759921D01*
X1593389D01*
X1593473Y759939D01*
X1593584Y759958D01*
X1593704Y759995D01*
X1593824Y760041D01*
X1593953Y760115D01*
X1594074Y760207D01*
X1594083Y760217D01*
X1594120Y760263D01*
X1594175Y760327D01*
X1594240Y760420D01*
X1594305Y760540D01*
X1594370Y760688D01*
X1594425Y760864D01*
X1594462Y761067D01*
X1595248Y760928D01*
Y760919D01*
X1595238Y760891D01*
X1595229Y760854D01*
X1595220Y760799D01*
X1595202Y760734D01*
X1595174Y760660D01*
X1595118Y760485D01*
X1595026Y760281D01*
X1594915Y760078D01*
X1594776Y759884D01*
X1594601Y759708D01*
X1594591Y759699D01*
X1594573Y759689D01*
X1594545Y759671D01*
X1594508Y759643D01*
X1594462Y759606D01*
X1594397Y759569D01*
X1594332Y759532D01*
X1594249Y759486D01*
X1594064Y759412D01*
X1593852Y759338D01*
X1593602Y759292D01*
X1593473Y759273D01*
X1593241D01*
X1593140Y759283D01*
X1593020Y759301D01*
X1592872Y759329D01*
X1592705Y759375D01*
X1592539Y759431D01*
X1592372Y759505D01*
X1592363D01*
X1592354Y759514D01*
X1592298Y759542D01*
X1592215Y759597D01*
X1592123Y759662D01*
X1592012Y759754D01*
X1591901Y759856D01*
X1591790Y759976D01*
X1591698Y760115D01*
X1591688Y760133D01*
X1591660Y760180D01*
X1591624Y760263D01*
X1591577Y760364D01*
X1591531Y760485D01*
X1591494Y760623D01*
X1591466Y760780D01*
X1591457Y760938D01*
Y760956D01*
Y761012D01*
X1591466Y761086D01*
X1591485Y761187D01*
X1591513Y761308D01*
X1591559Y761437D01*
X1591614Y761566D01*
X1591688Y761696D01*
X1591698Y761714D01*
X1591725Y761751D01*
X1591781Y761816D01*
X1591855Y761890D01*
X1591947Y761973D01*
X1592058Y762066D01*
X1592188Y762149D01*
X1592345Y762232D01*
X1592335D01*
X1592317Y762241D01*
X1592289Y762251D01*
X1592252Y762260D01*
X1592151Y762297D01*
X1592021Y762352D01*
X1591873Y762426D01*
X1591725Y762519D01*
X1591586Y762639D01*
X1591457Y762777D01*
X1591448Y762796D01*
X1591411Y762851D01*
X1591355Y762944D01*
X1591300Y763064D01*
X1591244Y763212D01*
X1591189Y763388D01*
X1591152Y763591D01*
X1591143Y763813D01*
Y763822D01*
Y763850D01*
Y763896D01*
X1591152Y763952D01*
X1591161Y764026D01*
X1591180Y764109D01*
X1591198Y764201D01*
X1591217Y764303D01*
X1591291Y764525D01*
X1591346Y764645D01*
X1591402Y764756D01*
X1591476Y764876D01*
X1591559Y764996D01*
X1591651Y765117D01*
X1591762Y765228D01*
X1591771Y765237D01*
X1591790Y765255D01*
X1591827Y765283D01*
X1591873Y765320D01*
X1591929Y765366D01*
X1592003Y765413D01*
X1592086Y765468D01*
X1592188Y765514D01*
X1592289Y765570D01*
X1592409Y765625D01*
X1592530Y765671D01*
X1592668Y765718D01*
X1592816Y765755D01*
X1592973Y765782D01*
X1593130Y765801D01*
X1593306Y765810D01*
X1593389D01*
X1593445Y765801D01*
D02*
G37*
G36*
X1601470Y759301D02*
X1599011D01*
X1598844Y759310D01*
X1598659Y759320D01*
X1598474Y759338D01*
X1598290Y759366D01*
X1598132Y759394D01*
X1598123D01*
X1598105Y759403D01*
X1598077D01*
X1598040Y759421D01*
X1597938Y759449D01*
X1597809Y759495D01*
X1597661Y759560D01*
X1597504Y759643D01*
X1597346Y759736D01*
X1597199Y759856D01*
X1597189Y759865D01*
X1597180Y759874D01*
X1597152Y759902D01*
X1597115Y759930D01*
X1597023Y760022D01*
X1596912Y760152D01*
X1596792Y760309D01*
X1596662Y760494D01*
X1596542Y760706D01*
X1596440Y760947D01*
Y760956D01*
X1596431Y760975D01*
X1596413Y761012D01*
X1596404Y761067D01*
X1596376Y761132D01*
X1596357Y761206D01*
X1596339Y761289D01*
X1596311Y761391D01*
X1596283Y761492D01*
X1596265Y761613D01*
X1596219Y761871D01*
X1596191Y762158D01*
X1596182Y762472D01*
Y762482D01*
Y762500D01*
Y762546D01*
Y762593D01*
X1596191Y762657D01*
Y762731D01*
X1596200Y762907D01*
X1596228Y763110D01*
X1596256Y763323D01*
X1596302Y763545D01*
X1596357Y763767D01*
Y763776D01*
X1596366Y763794D01*
X1596376Y763822D01*
X1596385Y763859D01*
X1596422Y763961D01*
X1596478Y764090D01*
X1596533Y764238D01*
X1596607Y764386D01*
X1596699Y764543D01*
X1596792Y764691D01*
X1596801Y764710D01*
X1596838Y764756D01*
X1596893Y764821D01*
X1596967Y764904D01*
X1597051Y764996D01*
X1597152Y765089D01*
X1597254Y765191D01*
X1597374Y765274D01*
X1597393Y765283D01*
X1597430Y765311D01*
X1597495Y765348D01*
X1597587Y765394D01*
X1597698Y765450D01*
X1597827Y765496D01*
X1597975Y765551D01*
X1598142Y765597D01*
X1598160D01*
X1598188Y765607D01*
X1598216Y765616D01*
X1598308Y765625D01*
X1598438Y765644D01*
X1598585Y765662D01*
X1598761Y765681D01*
X1598955Y765690D01*
X1599168Y765699D01*
X1601470D01*
Y759301D01*
D02*
G37*
G36*
X1610900Y733776D02*
X1611770D01*
Y733055D01*
X1610900D01*
Y731520D01*
X1610114D01*
Y733055D01*
X1607332D01*
Y733776D01*
X1610262Y737918D01*
X1610900D01*
Y733776D01*
D02*
G37*
G36*
X1604096Y737909D02*
X1604281Y737899D01*
X1604465Y737881D01*
X1604650Y737853D01*
X1604807Y737825D01*
X1604817D01*
X1604835Y737816D01*
X1604863D01*
X1604900Y737798D01*
X1605002Y737770D01*
X1605131Y737724D01*
X1605279Y737659D01*
X1605436Y737576D01*
X1605593Y737483D01*
X1605741Y737363D01*
X1605751Y737354D01*
X1605760Y737345D01*
X1605788Y737317D01*
X1605825Y737289D01*
X1605917Y737197D01*
X1606028Y737067D01*
X1606148Y736910D01*
X1606278Y736725D01*
X1606398Y736513D01*
X1606499Y736272D01*
Y736263D01*
X1606509Y736244D01*
X1606527Y736207D01*
X1606537Y736152D01*
X1606564Y736087D01*
X1606583Y736013D01*
X1606601Y735930D01*
X1606629Y735828D01*
X1606657Y735727D01*
X1606675Y735606D01*
X1606721Y735348D01*
X1606749Y735061D01*
X1606758Y734747D01*
Y734737D01*
Y734719D01*
Y734673D01*
Y734626D01*
X1606749Y734562D01*
Y734488D01*
X1606740Y734312D01*
X1606712Y734109D01*
X1606684Y733896D01*
X1606638Y733674D01*
X1606583Y733452D01*
Y733443D01*
X1606573Y733425D01*
X1606564Y733397D01*
X1606555Y733360D01*
X1606518Y733258D01*
X1606463Y733129D01*
X1606407Y732981D01*
X1606333Y732833D01*
X1606241Y732676D01*
X1606148Y732528D01*
X1606139Y732509D01*
X1606102Y732463D01*
X1606046Y732398D01*
X1605972Y732315D01*
X1605889Y732223D01*
X1605788Y732130D01*
X1605686Y732028D01*
X1605566Y731945D01*
X1605547Y731936D01*
X1605510Y731908D01*
X1605446Y731871D01*
X1605353Y731825D01*
X1605242Y731769D01*
X1605113Y731723D01*
X1604965Y731668D01*
X1604798Y731622D01*
X1604780D01*
X1604752Y731612D01*
X1604724Y731603D01*
X1604632Y731594D01*
X1604502Y731575D01*
X1604355Y731557D01*
X1604179Y731538D01*
X1603985Y731529D01*
X1603772Y731520D01*
X1601470D01*
Y737918D01*
X1603929D01*
X1604096Y737909D01*
D02*
G37*
G36*
X1413471Y574961D02*
X1413554Y574951D01*
X1413656Y574942D01*
X1413758Y574933D01*
X1413878Y574905D01*
X1414128Y574850D01*
X1414405Y574766D01*
X1414544Y574711D01*
X1414673Y574646D01*
X1414803Y574563D01*
X1414932Y574480D01*
X1414941Y574470D01*
X1414960Y574461D01*
X1414997Y574434D01*
X1415043Y574387D01*
X1415089Y574341D01*
X1415154Y574276D01*
X1415219Y574202D01*
X1415293Y574128D01*
X1415367Y574036D01*
X1415440Y573925D01*
X1415524Y573814D01*
X1415598Y573694D01*
X1415662Y573555D01*
X1415736Y573416D01*
X1415792Y573269D01*
X1415847Y573102D01*
X1415015Y572908D01*
Y572917D01*
X1415006Y572936D01*
X1414987Y572973D01*
X1414969Y573019D01*
X1414950Y573074D01*
X1414923Y573148D01*
X1414849Y573296D01*
X1414756Y573463D01*
X1414645Y573629D01*
X1414507Y573786D01*
X1414359Y573925D01*
X1414340Y573943D01*
X1414285Y573980D01*
X1414192Y574027D01*
X1414072Y574091D01*
X1413915Y574147D01*
X1413739Y574202D01*
X1413527Y574239D01*
X1413295Y574249D01*
X1413221D01*
X1413175Y574239D01*
X1413111D01*
X1413037Y574230D01*
X1412861Y574202D01*
X1412667Y574165D01*
X1412463Y574101D01*
X1412251Y574008D01*
X1412056Y573888D01*
X1412047D01*
X1412038Y573870D01*
X1411973Y573823D01*
X1411890Y573749D01*
X1411788Y573638D01*
X1411668Y573500D01*
X1411557Y573343D01*
X1411456Y573148D01*
X1411363Y572936D01*
Y572926D01*
X1411354Y572908D01*
X1411345Y572880D01*
X1411335Y572834D01*
X1411317Y572779D01*
X1411298Y572714D01*
X1411271Y572557D01*
X1411234Y572372D01*
X1411197Y572168D01*
X1411178Y571946D01*
X1411169Y571706D01*
Y571697D01*
Y571669D01*
Y571623D01*
Y571567D01*
X1411178Y571503D01*
Y571419D01*
X1411187Y571327D01*
X1411197Y571225D01*
X1411224Y571003D01*
X1411271Y570763D01*
X1411326Y570523D01*
X1411400Y570282D01*
Y570273D01*
X1411409Y570255D01*
X1411428Y570227D01*
X1411446Y570181D01*
X1411502Y570070D01*
X1411585Y569940D01*
X1411687Y569792D01*
X1411816Y569635D01*
X1411964Y569496D01*
X1412140Y569367D01*
X1412149D01*
X1412168Y569358D01*
X1412195Y569339D01*
X1412232Y569321D01*
X1412278Y569302D01*
X1412334Y569274D01*
X1412463Y569219D01*
X1412630Y569164D01*
X1412815Y569117D01*
X1413018Y569080D01*
X1413231Y569071D01*
X1413295D01*
X1413351Y569080D01*
X1413416D01*
X1413480Y569090D01*
X1413647Y569127D01*
X1413841Y569173D01*
X1414035Y569247D01*
X1414238Y569348D01*
X1414340Y569404D01*
X1414433Y569478D01*
X1414442Y569487D01*
X1414451Y569496D01*
X1414479Y569524D01*
X1414516Y569552D01*
X1414553Y569598D01*
X1414599Y569654D01*
X1414655Y569709D01*
X1414701Y569783D01*
X1414756Y569866D01*
X1414821Y569959D01*
X1414876Y570051D01*
X1414932Y570162D01*
X1414978Y570282D01*
X1415024Y570412D01*
X1415071Y570550D01*
X1415108Y570698D01*
X1415958Y570486D01*
Y570476D01*
X1415949Y570439D01*
X1415930Y570384D01*
X1415903Y570310D01*
X1415875Y570227D01*
X1415838Y570125D01*
X1415792Y570014D01*
X1415736Y569894D01*
X1415607Y569635D01*
X1415440Y569376D01*
X1415339Y569247D01*
X1415237Y569117D01*
X1415126Y569006D01*
X1414997Y568895D01*
X1414987Y568886D01*
X1414969Y568868D01*
X1414923Y568849D01*
X1414876Y568812D01*
X1414803Y568766D01*
X1414729Y568720D01*
X1414627Y568674D01*
X1414525Y568627D01*
X1414405Y568572D01*
X1414276Y568526D01*
X1414137Y568479D01*
X1413989Y568433D01*
X1413832Y568396D01*
X1413665Y568378D01*
X1413490Y568359D01*
X1413305Y568350D01*
X1413203D01*
X1413129Y568359D01*
X1413046D01*
X1412944Y568368D01*
X1412833Y568387D01*
X1412704Y568405D01*
X1412436Y568452D01*
X1412158Y568526D01*
X1411881Y568627D01*
X1411751Y568692D01*
X1411622Y568766D01*
X1411613Y568775D01*
X1411594Y568784D01*
X1411557Y568812D01*
X1411520Y568849D01*
X1411465Y568886D01*
X1411400Y568942D01*
X1411326Y569006D01*
X1411252Y569080D01*
X1411178Y569164D01*
X1411095Y569247D01*
X1410929Y569459D01*
X1410771Y569709D01*
X1410633Y569986D01*
Y569996D01*
X1410614Y570023D01*
X1410605Y570070D01*
X1410577Y570125D01*
X1410559Y570199D01*
X1410531Y570291D01*
X1410494Y570393D01*
X1410466Y570504D01*
X1410439Y570624D01*
X1410402Y570763D01*
X1410355Y571050D01*
X1410318Y571373D01*
X1410300Y571706D01*
Y571715D01*
Y571752D01*
Y571808D01*
X1410309Y571872D01*
Y571965D01*
X1410318Y572057D01*
X1410328Y572178D01*
X1410346Y572298D01*
X1410392Y572566D01*
X1410457Y572862D01*
X1410549Y573158D01*
X1410679Y573444D01*
X1410688Y573453D01*
X1410697Y573481D01*
X1410716Y573518D01*
X1410753Y573564D01*
X1410790Y573629D01*
X1410836Y573703D01*
X1410956Y573870D01*
X1411113Y574054D01*
X1411298Y574239D01*
X1411511Y574424D01*
X1411761Y574581D01*
X1411770Y574591D01*
X1411798Y574600D01*
X1411835Y574618D01*
X1411881Y574646D01*
X1411955Y574674D01*
X1412029Y574702D01*
X1412121Y574739D01*
X1412223Y574776D01*
X1412334Y574813D01*
X1412454Y574850D01*
X1412713Y574905D01*
X1413009Y574951D01*
X1413314Y574970D01*
X1413406D01*
X1413471Y574961D01*
D02*
G37*
G36*
X1418954Y574877D02*
X1419028Y574868D01*
X1419120Y574859D01*
X1419222Y574840D01*
X1419324Y574822D01*
X1419564Y574757D01*
X1419804Y574665D01*
X1419924Y574609D01*
X1420045Y574544D01*
X1420156Y574461D01*
X1420257Y574369D01*
X1420267Y574360D01*
X1420285Y574350D01*
X1420304Y574313D01*
X1420341Y574276D01*
X1420387Y574230D01*
X1420433Y574165D01*
X1420479Y574101D01*
X1420535Y574017D01*
X1420627Y573842D01*
X1420720Y573620D01*
X1420757Y573509D01*
X1420775Y573380D01*
X1420794Y573250D01*
X1420803Y573111D01*
Y573093D01*
Y573047D01*
X1420794Y572973D01*
X1420784Y572871D01*
X1420766Y572760D01*
X1420729Y572631D01*
X1420692Y572492D01*
X1420636Y572353D01*
X1420627Y572335D01*
X1420609Y572289D01*
X1420572Y572215D01*
X1420516Y572113D01*
X1420442Y572002D01*
X1420350Y571863D01*
X1420239Y571725D01*
X1420110Y571567D01*
X1420091Y571549D01*
X1420045Y571493D01*
X1419998Y571447D01*
X1419952Y571401D01*
X1419897Y571345D01*
X1419823Y571272D01*
X1419749Y571198D01*
X1419656Y571114D01*
X1419564Y571022D01*
X1419453Y570920D01*
X1419333Y570818D01*
X1419203Y570698D01*
X1419055Y570578D01*
X1418907Y570449D01*
X1418898Y570439D01*
X1418880Y570421D01*
X1418843Y570393D01*
X1418797Y570356D01*
X1418741Y570301D01*
X1418676Y570245D01*
X1418528Y570125D01*
X1418371Y569986D01*
X1418223Y569848D01*
X1418094Y569728D01*
X1418038Y569681D01*
X1417992Y569635D01*
X1417983Y569626D01*
X1417955Y569598D01*
X1417918Y569561D01*
X1417872Y569506D01*
X1417826Y569441D01*
X1417770Y569376D01*
X1417659Y569219D01*
X1420812D01*
Y568461D01*
X1416568D01*
Y568470D01*
Y568507D01*
Y568563D01*
X1416578Y568637D01*
X1416587Y568720D01*
X1416605Y568812D01*
X1416624Y568905D01*
X1416661Y569006D01*
Y569016D01*
X1416670Y569025D01*
X1416689Y569080D01*
X1416726Y569164D01*
X1416781Y569274D01*
X1416855Y569404D01*
X1416947Y569552D01*
X1417049Y569700D01*
X1417179Y569857D01*
Y569866D01*
X1417197Y569875D01*
X1417243Y569931D01*
X1417327Y570014D01*
X1417447Y570134D01*
X1417585Y570273D01*
X1417761Y570439D01*
X1417974Y570624D01*
X1418205Y570818D01*
X1418214Y570828D01*
X1418251Y570855D01*
X1418307Y570902D01*
X1418371Y570957D01*
X1418454Y571031D01*
X1418556Y571114D01*
X1418658Y571207D01*
X1418778Y571309D01*
X1419009Y571530D01*
X1419240Y571752D01*
X1419351Y571863D01*
X1419453Y571974D01*
X1419545Y572076D01*
X1419619Y572178D01*
Y572187D01*
X1419638Y572196D01*
X1419656Y572224D01*
X1419675Y572261D01*
X1419740Y572363D01*
X1419814Y572483D01*
X1419878Y572631D01*
X1419943Y572788D01*
X1419980Y572963D01*
X1419998Y573130D01*
Y573139D01*
Y573148D01*
X1419989Y573204D01*
X1419980Y573296D01*
X1419952Y573398D01*
X1419915Y573527D01*
X1419851Y573657D01*
X1419767Y573786D01*
X1419656Y573916D01*
X1419638Y573934D01*
X1419592Y573971D01*
X1419527Y574017D01*
X1419425Y574082D01*
X1419296Y574138D01*
X1419148Y574193D01*
X1418972Y574230D01*
X1418778Y574239D01*
X1418723D01*
X1418686Y574230D01*
X1418575Y574221D01*
X1418445Y574193D01*
X1418307Y574156D01*
X1418149Y574091D01*
X1418002Y574008D01*
X1417863Y573897D01*
X1417844Y573879D01*
X1417807Y573833D01*
X1417752Y573759D01*
X1417696Y573648D01*
X1417632Y573518D01*
X1417576Y573352D01*
X1417539Y573167D01*
X1417521Y572954D01*
X1416716Y573037D01*
Y573047D01*
X1416726Y573074D01*
Y573121D01*
X1416735Y573185D01*
X1416753Y573259D01*
X1416772Y573343D01*
X1416799Y573444D01*
X1416827Y573546D01*
X1416901Y573768D01*
X1417012Y573990D01*
X1417077Y574101D01*
X1417160Y574212D01*
X1417243Y574313D01*
X1417336Y574406D01*
X1417345Y574415D01*
X1417363Y574424D01*
X1417391Y574452D01*
X1417437Y574480D01*
X1417493Y574517D01*
X1417558Y574554D01*
X1417632Y574600D01*
X1417724Y574646D01*
X1417826Y574692D01*
X1417937Y574739D01*
X1418057Y574776D01*
X1418186Y574813D01*
X1418325Y574840D01*
X1418473Y574868D01*
X1418630Y574877D01*
X1418797Y574887D01*
X1418889D01*
X1418954Y574877D01*
D02*
G37*
%LPC*%
G36*
X1600620Y833632D02*
X1599103D01*
X1599039Y833623D01*
X1598900Y833613D01*
X1598743Y833604D01*
X1598576Y833586D01*
X1598410Y833558D01*
X1598271Y833521D01*
X1598253Y833512D01*
X1598206Y833503D01*
X1598142Y833475D01*
X1598058Y833438D01*
X1597966Y833382D01*
X1597874Y833327D01*
X1597781Y833262D01*
X1597689Y833188D01*
X1597679Y833170D01*
X1597642Y833133D01*
X1597587Y833068D01*
X1597522Y832975D01*
X1597448Y832855D01*
X1597365Y832717D01*
X1597291Y832559D01*
X1597226Y832384D01*
Y832374D01*
X1597217Y832356D01*
X1597208Y832328D01*
X1597199Y832291D01*
X1597189Y832245D01*
X1597171Y832180D01*
X1597152Y832116D01*
X1597134Y832042D01*
X1597106Y831857D01*
X1597078Y831644D01*
X1597060Y831404D01*
X1597051Y831145D01*
Y831136D01*
Y831099D01*
Y831052D01*
X1597060Y830978D01*
Y830895D01*
X1597069Y830803D01*
X1597078Y830692D01*
X1597088Y830581D01*
X1597134Y830331D01*
X1597189Y830072D01*
X1597273Y829832D01*
X1597328Y829712D01*
X1597384Y829610D01*
Y829601D01*
X1597402Y829582D01*
X1597421Y829555D01*
X1597439Y829518D01*
X1597513Y829425D01*
X1597605Y829314D01*
X1597726Y829194D01*
X1597864Y829074D01*
X1598022Y828972D01*
X1598188Y828889D01*
X1598206Y828880D01*
X1598253Y828870D01*
X1598336Y828843D01*
X1598456Y828815D01*
X1598604Y828796D01*
X1598789Y828769D01*
X1598900Y828760D01*
X1599020D01*
X1599140Y828750D01*
X1600620D01*
Y833632D01*
D02*
G37*
G36*
X1603800Y805740D02*
X1602321D01*
Y800858D01*
X1603837D01*
X1603902Y800867D01*
X1604040Y800876D01*
X1604197Y800886D01*
X1604364Y800904D01*
X1604530Y800932D01*
X1604669Y800969D01*
X1604687Y800978D01*
X1604734Y800987D01*
X1604798Y801015D01*
X1604881Y801052D01*
X1604974Y801108D01*
X1605066Y801163D01*
X1605159Y801228D01*
X1605251Y801302D01*
X1605261Y801320D01*
X1605298Y801357D01*
X1605353Y801422D01*
X1605418Y801514D01*
X1605492Y801635D01*
X1605575Y801773D01*
X1605649Y801930D01*
X1605714Y802106D01*
Y802115D01*
X1605723Y802134D01*
X1605732Y802162D01*
X1605741Y802199D01*
X1605751Y802245D01*
X1605769Y802310D01*
X1605788Y802374D01*
X1605806Y802448D01*
X1605834Y802633D01*
X1605862Y802846D01*
X1605880Y803086D01*
X1605889Y803345D01*
Y803354D01*
Y803391D01*
Y803438D01*
X1605880Y803512D01*
Y803595D01*
X1605871Y803687D01*
X1605862Y803798D01*
X1605852Y803909D01*
X1605806Y804159D01*
X1605751Y804418D01*
X1605667Y804658D01*
X1605612Y804778D01*
X1605556Y804880D01*
Y804889D01*
X1605538Y804908D01*
X1605519Y804935D01*
X1605501Y804972D01*
X1605427Y805065D01*
X1605334Y805176D01*
X1605214Y805296D01*
X1605076Y805416D01*
X1604919Y805518D01*
X1604752Y805601D01*
X1604734Y805610D01*
X1604687Y805620D01*
X1604604Y805647D01*
X1604484Y805675D01*
X1604336Y805694D01*
X1604151Y805721D01*
X1604040Y805730D01*
X1603920D01*
X1603800Y805740D01*
D02*
G37*
G36*
X1600620Y764941D02*
X1599103D01*
X1599039Y764932D01*
X1598900Y764922D01*
X1598743Y764913D01*
X1598576Y764895D01*
X1598410Y764867D01*
X1598271Y764830D01*
X1598253Y764821D01*
X1598206Y764812D01*
X1598142Y764784D01*
X1598058Y764747D01*
X1597966Y764691D01*
X1597874Y764636D01*
X1597781Y764571D01*
X1597689Y764497D01*
X1597679Y764479D01*
X1597642Y764442D01*
X1597587Y764377D01*
X1597522Y764285D01*
X1597448Y764164D01*
X1597365Y764026D01*
X1597291Y763868D01*
X1597226Y763693D01*
Y763684D01*
X1597217Y763665D01*
X1597208Y763637D01*
X1597199Y763600D01*
X1597189Y763554D01*
X1597171Y763489D01*
X1597152Y763425D01*
X1597134Y763351D01*
X1597106Y763166D01*
X1597078Y762953D01*
X1597060Y762713D01*
X1597051Y762454D01*
Y762445D01*
Y762408D01*
Y762362D01*
X1597060Y762288D01*
Y762204D01*
X1597069Y762112D01*
X1597078Y762001D01*
X1597088Y761890D01*
X1597134Y761640D01*
X1597189Y761381D01*
X1597273Y761141D01*
X1597328Y761021D01*
X1597384Y760919D01*
Y760910D01*
X1597402Y760891D01*
X1597421Y760864D01*
X1597439Y760827D01*
X1597513Y760734D01*
X1597605Y760623D01*
X1597726Y760503D01*
X1597864Y760383D01*
X1598022Y760281D01*
X1598188Y760198D01*
X1598206Y760189D01*
X1598253Y760180D01*
X1598336Y760152D01*
X1598456Y760124D01*
X1598604Y760106D01*
X1598789Y760078D01*
X1598900Y760069D01*
X1599020D01*
X1599140Y760059D01*
X1600620D01*
Y764941D01*
D02*
G37*
G36*
X1610114Y736642D02*
X1608099Y733776D01*
X1610114D01*
Y736642D01*
D02*
G37*
G36*
X1603800Y737160D02*
X1602321D01*
Y732278D01*
X1603837D01*
X1603902Y732287D01*
X1604040Y732297D01*
X1604197Y732306D01*
X1604364Y732324D01*
X1604530Y732352D01*
X1604669Y732389D01*
X1604687Y732398D01*
X1604734Y732408D01*
X1604798Y732435D01*
X1604881Y732472D01*
X1604974Y732528D01*
X1605066Y732583D01*
X1605159Y732648D01*
X1605251Y732722D01*
X1605261Y732740D01*
X1605298Y732777D01*
X1605353Y732842D01*
X1605418Y732934D01*
X1605492Y733055D01*
X1605575Y733193D01*
X1605649Y733351D01*
X1605714Y733526D01*
Y733535D01*
X1605723Y733554D01*
X1605732Y733582D01*
X1605741Y733619D01*
X1605751Y733665D01*
X1605769Y733730D01*
X1605788Y733794D01*
X1605806Y733868D01*
X1605834Y734053D01*
X1605862Y734266D01*
X1605880Y734506D01*
X1605889Y734765D01*
Y734774D01*
Y734811D01*
Y734857D01*
X1605880Y734931D01*
Y735015D01*
X1605871Y735107D01*
X1605862Y735218D01*
X1605852Y735329D01*
X1605806Y735579D01*
X1605751Y735838D01*
X1605667Y736078D01*
X1605612Y736198D01*
X1605556Y736300D01*
Y736309D01*
X1605538Y736328D01*
X1605519Y736355D01*
X1605501Y736392D01*
X1605427Y736485D01*
X1605334Y736596D01*
X1605214Y736716D01*
X1605076Y736836D01*
X1604919Y736938D01*
X1604752Y737021D01*
X1604734Y737030D01*
X1604687Y737039D01*
X1604604Y737067D01*
X1604484Y737095D01*
X1604336Y737113D01*
X1604151Y737141D01*
X1604040Y737150D01*
X1603920D01*
X1603800Y737160D01*
D02*
G37*
%LPD*%
D10*
X1654620Y819390D02*
Y849390D01*
X1548320D02*
X1654620D01*
X1548320Y819390D02*
Y849390D01*
Y819390D02*
X1654620D01*
X1513790Y889870D02*
Y998570D01*
Y889870D02*
X1562790D01*
Y998570D01*
X1513790D02*
X1562790D01*
X1548320Y785100D02*
Y815100D01*
Y785100D02*
X1654620D01*
Y815100D01*
X1548320D02*
X1654620D01*
Y750810D02*
Y780810D01*
X1548320D02*
X1654620D01*
X1548320Y750810D02*
Y780810D01*
Y750810D02*
X1654620D01*
X1548320Y716520D02*
Y746520D01*
Y716520D02*
X1654620D01*
Y746520D01*
X1548320D02*
X1654620D01*
M02*
