G04*
G04 #@! TF.GenerationSoftware,Altium Limited,Altium Designer,24.5.2 (23)*
G04*
G04 Layer_Color=32768*
%FSLAX44Y44*%
%MOMM*%
G71*
G04*
G04 #@! TF.SameCoordinates,E433FD67-1584-4B15-B20B-D7A4E77B4FCA*
G04*
G04*
G04 #@! TF.FilePolarity,Positive*
G04*
G01*
G75*
%ADD10C,0.2000*%
%ADD35C,0.1000*%
%ADD36C,0.0500*%
D10*
X1321880Y964590D02*
G03*
X1508880Y964590I93500J0D01*
G01*
D02*
G03*
X1321880Y964590I-93500J0D01*
G01*
X1316800Y568350D02*
G03*
X1503800Y568350I93500J0D01*
G01*
D02*
G03*
X1316800Y568350I-93500J0D01*
G01*
X1654620Y819390D02*
Y849390D01*
X1548320D02*
X1654620D01*
X1548320Y819390D02*
Y849390D01*
Y819390D02*
X1654620D01*
X1431410Y763460D02*
X1451410D01*
X1441410Y753460D02*
Y773460D01*
X1351410Y663460D02*
X1531410D01*
X1351410D02*
Y863460D01*
X1531410D01*
Y663460D02*
Y863460D01*
X1513790Y889870D02*
Y998570D01*
Y889870D02*
X1562790D01*
Y998570D01*
X1513790D02*
X1562790D01*
X1548320Y785100D02*
Y815100D01*
Y785100D02*
X1654620D01*
Y815100D01*
X1548320D02*
X1654620D01*
Y750810D02*
Y780810D01*
X1548320D02*
X1654620D01*
X1548320Y750810D02*
Y780810D01*
Y750810D02*
X1654620D01*
X1548320Y716520D02*
Y746520D01*
Y716520D02*
X1654620D01*
Y746520D01*
X1548320D02*
X1654620D01*
D35*
X1550670Y582400D02*
Y592400D01*
X1545670Y587400D02*
X1555670D01*
D36*
X1652860Y857880D02*
Y962880D01*
X1572860Y857880D02*
X1652860D01*
X1572860D02*
Y962880D01*
X1652860D01*
X1273220Y713970D02*
Y818970D01*
X1353220D01*
Y713970D02*
Y818970D01*
X1273220Y713970D02*
X1353220D01*
X1576750Y568320D02*
Y673320D01*
X1656750D01*
Y568320D02*
Y673320D01*
X1576750Y568320D02*
X1656750D01*
X1521170Y641900D02*
X1570170D01*
X1521170Y532900D02*
X1570170D01*
Y641900D01*
X1521170Y532900D02*
Y641900D01*
M02*
