G04*
G04 #@! TF.GenerationSoftware,Altium Limited,Altium Designer,24.5.2 (23)*
G04*
G04 Layer_Color=16711935*
%FSLAX44Y44*%
%MOMM*%
G71*
G04*
G04 #@! TF.SameCoordinates,E433FD67-1584-4B15-B20B-D7A4E77B4FCA*
G04*
G04*
G04 #@! TF.FilePolarity,Negative*
G04*
G01*
G75*
%ADD16R,2.3032X2.3032*%
%ADD17C,2.3032*%
%ADD18C,3.2032*%
%ADD19C,1.5500*%
%ADD20R,1.5500X1.5500*%
%ADD21R,2.4032X2.4032*%
%ADD22C,2.4032*%
%ADD23C,2.0500*%
%ADD24R,2.0500X2.0500*%
%ADD25R,1.8032X1.8032*%
%ADD26C,1.8032*%
D16*
X1610360Y935380D02*
D03*
X1315720Y741470D02*
D03*
X1619250Y595820D02*
D03*
D17*
X1610360Y885380D02*
D03*
X1315720Y791470D02*
D03*
X1619250Y645820D02*
D03*
D18*
X1636895Y1040000D02*
D03*
X1295060Y1039943D02*
D03*
X1292860Y495300D02*
D03*
X1635760D02*
D03*
D19*
X1557070Y834390D02*
D03*
X1452880Y964590D02*
D03*
X1645870Y800100D02*
D03*
X1557070Y765810D02*
D03*
X1645870Y731520D02*
D03*
X1447800Y568350D02*
D03*
D20*
X1645870Y834390D02*
D03*
X1377880Y964590D02*
D03*
X1557070Y800100D02*
D03*
X1645870Y765810D02*
D03*
X1557070Y731520D02*
D03*
X1372800Y568350D02*
D03*
D21*
X1502410Y695960D02*
D03*
D22*
Y722960D02*
D03*
Y749960D02*
D03*
Y776960D02*
D03*
Y803960D02*
D03*
Y830960D02*
D03*
X1380410Y710960D02*
D03*
Y745960D02*
D03*
Y780960D02*
D03*
Y815960D02*
D03*
D23*
X1532890Y918870D02*
D03*
Y944220D02*
D03*
D24*
Y969570D02*
D03*
D25*
X1550670Y562000D02*
D03*
D26*
Y587400D02*
D03*
Y612800D02*
D03*
M02*
