G04*
G04 #@! TF.GenerationSoftware,Altium Limited,Altium Designer,24.5.2 (23)*
G04*
G04 Layer_Color=65535*
%FSLAX44Y44*%
%MOMM*%
G71*
G04*
G04 #@! TF.SameCoordinates,E433FD67-1584-4B15-B20B-D7A4E77B4FCA*
G04*
G04*
G04 #@! TF.FilePolarity,Positive*
G04*
G01*
G75*
%ADD10C,0.2000*%
%ADD11C,0.6000*%
%ADD12C,0.2500*%
%ADD13C,0.1500*%
%ADD14C,0.1270*%
%ADD15C,0.2540*%
D10*
X1611360Y966380D02*
G03*
X1611360Y966380I-1000J0D01*
G01*
X1448160Y673460D02*
G03*
X1434660Y673460I-6750J0D01*
G01*
X1316720Y710470D02*
G03*
X1316720Y710470I-1000J0D01*
G01*
X1620250Y564820D02*
G03*
X1620250Y564820I-1000J0D01*
G01*
X1614470Y821090D02*
Y847690D01*
X1568820Y834390D02*
X1575470D01*
X1627470D02*
X1634120D01*
X1627470Y820390D02*
Y848390D01*
X1575470D02*
X1627470D01*
X1575470Y820390D02*
Y848390D01*
Y820390D02*
X1627470D01*
X1448160Y673460D02*
X1523910D01*
X1358910D02*
X1434660D01*
X1358910D02*
Y853460D01*
X1523910D01*
Y673460D02*
Y853460D01*
X1514790Y986900D02*
X1561790Y997570D01*
Y891370D02*
Y997070D01*
X1514790Y901540D02*
X1561790Y890870D01*
X1514790Y901540D02*
Y986900D01*
X1353880Y896590D02*
Y1032590D01*
X1588470Y786800D02*
Y813400D01*
X1627470Y800100D02*
X1634120D01*
X1568820D02*
X1575470D01*
Y786100D02*
Y814100D01*
Y786100D02*
X1627470D01*
Y814100D01*
X1575470D02*
X1627470D01*
X1614470Y752510D02*
Y779110D01*
X1568820Y765810D02*
X1575470D01*
X1627470D02*
X1634120D01*
X1627470Y751810D02*
Y779810D01*
X1575470D02*
X1627470D01*
X1575470Y751810D02*
Y779810D01*
Y751810D02*
X1627470D01*
X1588470Y718220D02*
Y744820D01*
X1627470Y731520D02*
X1634120D01*
X1568820D02*
X1575470D01*
Y717520D02*
Y745520D01*
Y717520D02*
X1627470D01*
Y745520D01*
X1575470D02*
X1627470D01*
X1348800Y500350D02*
Y636350D01*
X1527170Y533900D02*
Y640900D01*
X1522170Y533900D02*
Y640900D01*
X1569170Y533900D02*
Y640900D01*
X1522170Y533900D02*
X1569170D01*
X1522170Y640900D02*
X1569170D01*
D11*
X1545410Y698460D02*
G03*
X1545410Y698460I-2000J0D01*
G01*
D12*
X1534140Y1002570D02*
G03*
X1534140Y1002570I-1250J0D01*
G01*
X1576920Y562000D02*
G03*
X1576920Y562000I-1250J0D01*
G01*
D13*
X1507880Y964590D02*
G03*
X1507880Y964590I-92500J0D01*
G01*
X1502800Y568350D02*
G03*
X1502800Y568350I-92500J0D01*
G01*
D14*
X1650360Y860380D02*
Y960380D01*
X1575360D02*
X1650360D01*
X1575360Y860380D02*
Y960380D01*
Y860380D02*
X1650360D01*
X1275720Y716470D02*
Y816470D01*
Y716470D02*
X1350720D01*
Y816470D01*
X1275720D02*
X1350720D01*
X1579250Y570820D02*
Y670820D01*
Y570820D02*
X1654250D01*
Y670820D01*
X1579250D02*
X1654250D01*
D15*
X1286513Y945422D02*
Y935990D01*
X1301750D01*
Y945422D01*
X1293769Y935990D02*
Y941795D01*
X1286513Y947962D02*
X1301750D01*
X1286513D02*
X1301750Y958120D01*
X1286513D02*
X1301750D01*
X1286513Y967407D02*
X1301750D01*
X1286513Y962328D02*
Y972486D01*
X1290141Y985183D02*
X1288690Y984457D01*
X1287239Y983006D01*
X1286513Y981555D01*
Y978653D01*
X1287239Y977202D01*
X1288690Y975751D01*
X1290141Y975025D01*
X1292318Y974299D01*
X1295945D01*
X1298122Y975025D01*
X1299573Y975751D01*
X1301024Y977202D01*
X1301750Y978653D01*
Y981555D01*
X1301024Y983006D01*
X1299573Y984457D01*
X1298122Y985183D01*
X1286517Y527050D02*
X1301752D01*
X1294134D01*
Y537207D01*
X1286517D01*
X1301752D01*
X1291595Y542285D02*
X1299212D01*
X1301752Y544824D01*
Y552442D01*
X1304291D01*
X1306830Y549903D01*
Y547363D01*
X1301752Y552442D02*
X1291595D01*
X1306830Y557520D02*
X1291595D01*
Y565138D01*
X1294134Y567677D01*
X1299212D01*
X1301752Y565138D01*
Y557520D01*
Y580373D02*
Y575294D01*
X1299212Y572755D01*
X1294134D01*
X1291595Y575294D01*
Y580373D01*
X1294134Y582912D01*
X1296673D01*
Y572755D01*
X1291595Y587990D02*
X1301752D01*
X1296673D01*
X1294134Y590530D01*
X1291595Y593069D01*
Y595608D01*
X1289056Y605765D02*
X1291595D01*
Y603225D01*
Y608304D01*
Y605765D01*
X1299212D01*
X1301752Y608304D01*
X1291595Y615921D02*
X1301752D01*
X1296673D01*
X1294134Y618460D01*
X1291595Y621000D01*
Y623539D01*
X1301752Y633695D02*
Y638774D01*
X1299212Y641313D01*
X1294134D01*
X1291595Y638774D01*
Y633695D01*
X1294134Y631156D01*
X1299212D01*
X1301752Y633695D01*
Y646391D02*
X1291595D01*
Y654009D01*
X1294134Y656548D01*
X1301752D01*
Y661627D02*
Y666705D01*
Y664166D01*
X1291595D01*
Y661627D01*
Y684479D02*
Y676861D01*
X1294134Y674322D01*
X1299212D01*
X1301752Y676861D01*
Y684479D01*
Y689557D02*
Y697175D01*
X1299212Y699714D01*
X1296673Y697175D01*
Y692097D01*
X1294134Y689557D01*
X1291595Y692097D01*
Y699714D01*
X1590040Y558184D02*
Y542949D01*
X1597657D01*
X1600197Y545488D01*
Y555645D01*
X1597657Y558184D01*
X1590040D01*
X1615432Y555645D02*
X1612893Y558184D01*
X1607814D01*
X1605275Y555645D01*
Y545488D01*
X1607814Y542949D01*
X1612893D01*
X1615432Y545488D01*
X1620510Y540410D02*
X1630667D01*
X1635745Y550567D02*
X1645902D01*
X1584960Y991254D02*
Y976019D01*
X1592578D01*
X1595117Y978558D01*
Y988715D01*
X1592578Y991254D01*
X1584960D01*
X1610352Y988715D02*
X1607813Y991254D01*
X1602734D01*
X1600195Y988715D01*
Y978558D01*
X1602734Y976019D01*
X1607813D01*
X1610352Y978558D01*
X1615430Y973480D02*
X1625587D01*
X1630665Y983637D02*
X1640822D01*
X1635744Y988715D02*
Y978558D01*
X1280160Y832509D02*
Y842666D01*
X1285238Y847744D01*
X1290317Y842666D01*
Y832509D01*
Y840127D01*
X1280160D01*
X1305552Y845205D02*
X1303013Y847744D01*
X1297934D01*
X1295395Y845205D01*
Y835048D01*
X1297934Y832509D01*
X1303013D01*
X1305552Y835048D01*
X1310630Y829970D02*
X1320787D01*
X1325865Y847744D02*
X1330944D01*
X1328404D01*
Y832509D01*
X1325865D01*
X1330944D01*
X1338561D02*
Y847744D01*
X1348718Y832509D01*
Y847744D01*
X1523365Y659914D02*
Y651450D01*
X1525058Y649757D01*
X1528443D01*
X1530136Y651450D01*
Y659914D01*
X1540293Y649757D02*
X1533522D01*
X1540293Y656528D01*
Y658221D01*
X1538600Y659914D01*
X1535215D01*
X1533522Y658221D01*
X1541359Y882038D02*
Y873574D01*
X1543052Y871882D01*
X1546437D01*
X1548130Y873574D01*
Y882038D01*
X1551516Y871882D02*
X1554901D01*
X1553208D01*
Y882038D01*
X1551516Y880346D01*
X1429599Y712188D02*
X1436370D01*
X1432984D01*
Y702032D01*
X1439756D02*
X1443141D01*
X1441448D01*
Y712188D01*
X1439756Y710496D01*
X1629836Y615342D02*
Y625498D01*
X1634914D01*
X1636607Y623806D01*
Y620420D01*
X1634914Y618727D01*
X1629836D01*
X1639993Y623806D02*
X1641686Y625498D01*
X1645071D01*
X1646764Y623806D01*
Y622113D01*
X1645071Y620420D01*
X1643378D01*
X1645071D01*
X1646764Y618727D01*
Y617034D01*
X1645071Y615342D01*
X1641686D01*
X1639993Y617034D01*
X1584116Y901702D02*
Y911858D01*
X1589194D01*
X1590887Y910166D01*
Y906780D01*
X1589194Y905087D01*
X1584116D01*
X1601044Y901702D02*
X1594273D01*
X1601044Y908473D01*
Y910166D01*
X1599351Y911858D01*
X1595966D01*
X1594273Y910166D01*
X1288629Y763932D02*
Y774088D01*
X1293707D01*
X1295400Y772396D01*
Y769010D01*
X1293707Y767317D01*
X1288629D01*
X1298786Y763932D02*
X1302171D01*
X1300478D01*
Y774088D01*
X1298786Y772396D01*
X1603166Y736598D02*
Y726442D01*
X1608244D01*
X1609937Y728134D01*
Y734906D01*
X1608244Y736598D01*
X1603166D01*
X1618401Y726442D02*
Y736598D01*
X1613323Y731520D01*
X1620094D01*
X1589196Y770888D02*
Y760732D01*
X1594274D01*
X1595967Y762424D01*
Y769196D01*
X1594274Y770888D01*
X1589196D01*
X1599353Y769196D02*
X1601046Y770888D01*
X1604431D01*
X1606124Y769196D01*
Y767503D01*
X1604431Y765810D01*
X1602738D01*
X1604431D01*
X1606124Y764117D01*
Y762424D01*
X1604431Y760732D01*
X1601046D01*
X1599353Y762424D01*
X1601896Y805178D02*
Y795022D01*
X1606974D01*
X1608667Y796714D01*
Y803486D01*
X1606974Y805178D01*
X1601896D01*
X1618824Y795022D02*
X1612053D01*
X1618824Y801793D01*
Y803486D01*
X1617131Y805178D01*
X1613746D01*
X1612053Y803486D01*
X1588349Y839468D02*
Y829312D01*
X1593427D01*
X1595120Y831004D01*
Y837776D01*
X1593427Y839468D01*
X1588349D01*
X1598506Y829312D02*
X1601891D01*
X1600198D01*
Y839468D01*
X1598506Y837776D01*
X1414357Y612376D02*
X1412664Y614068D01*
X1409279D01*
X1407586Y612376D01*
Y605604D01*
X1409279Y603912D01*
X1412664D01*
X1414357Y605604D01*
X1424514Y603912D02*
X1417743D01*
X1424514Y610683D01*
Y612376D01*
X1422821Y614068D01*
X1419436D01*
X1417743Y612376D01*
X1419860Y936226D02*
X1418167Y937918D01*
X1414782D01*
X1413089Y936226D01*
Y929454D01*
X1414782Y927762D01*
X1418167D01*
X1419860Y929454D01*
X1423246Y927762D02*
X1426631D01*
X1424938D01*
Y937918D01*
X1423246Y936226D01*
M02*
